<?xml version="1.0" encoding="UTF-8"?>
<svg width="71px" height="59px" viewBox="0 0 71 59" version="1.1" xmlns="http://www.w3.org/2000/svg" xmlns:xlink="http://www.w3.org/1999/xlink">
    <!-- Generator: Sketch 63.1 (92452) - https://sketch.com -->
    <title>77</title>
    <desc>Created with Sketch.</desc>
    <g id="Page-1" stroke="none" stroke-width="1" fill="none" fill-rule="evenodd">
        <g id="77" transform="translate(-1.000000, 0.000000)" fill-rule="nonzero">
            <g id="Group">
                <path d="M7.738,39.858 L7.738,34.164 C7.738,18.25 20.732,5.402 36.5,5.402 C52.268,5.402 65.262,18.25 65.262,34.164 L65.262,39.858 L69.642,39.858 L69.642,34.164 C69.642,15.914 54.75,1.022 36.5,1.022 C18.25,1.022 3.358,15.914 3.358,34.164 L3.358,39.858 L7.738,39.858 Z" id="Path" fill="#CED6E0"></path>
                <g transform="translate(0.000000, 32.120000)" id="Path">
                    <path d="M16.06,0.73 L12.264,1.168 C10.658,1.46 9.49,2.92 9.782,4.526 L12.41,23.506 C12.556,25.112 14.162,26.28 15.768,25.988 L19.564,25.55 C21.17,25.404 22.338,23.798 22.046,22.192 L19.418,3.212 C19.126,1.606 17.52,0.438 16.06,0.73 Z" fill="#CED6E0"></path>
                    <path d="M3.066,7.154 C2.044,7.3 1.314,8.322 1.46,9.344 L3.066,21.024 C3.212,22.046 4.234,22.776 5.256,22.63 L12.118,21.754 L9.928,6.278 L3.066,7.154 Z" fill="#415A6B"></path>
                </g>
                <g transform="translate(49.640000, 32.120000)" id="Path">
                    <path d="M11.096,1.168 L7.3,0.73 C5.694,0.584 4.234,1.606 3.942,3.212 L1.314,22.192 C1.168,23.798 2.19,25.258 3.796,25.55 L7.592,25.988 C9.198,26.134 10.658,25.112 10.95,23.506 L13.578,4.526 C13.87,2.92 12.702,1.46 11.096,1.168 Z" fill="#CED6E0"></path>
                    <path d="M20.294,7.154 C21.316,7.3 22.046,8.322 21.9,9.344 L20.294,21.024 C20.148,22.046 19.126,22.776 18.104,22.63 L11.242,21.754 L13.286,6.278 L20.294,7.154 Z" fill="#415A6B"></path>
                </g>
            </g>
            <path d="M60.444,10.22 C54.312,4.088 45.844,0.292 36.5,0.292 C27.156,0.292 18.688,4.088 12.556,10.22 C12.264,10.512 12.264,10.95 12.556,11.242 L15.184,14.6 C15.476,15.038 16.06,15.038 16.352,14.6 C21.462,9.344 28.616,5.986 36.5,5.986 C44.384,5.986 51.538,9.344 56.648,14.6 C56.94,14.892 57.524,14.892 57.816,14.6 L60.444,11.242 C60.736,11.096 60.736,10.512 60.444,10.22 Z" id="Path" fill="#8AD7F8"></path>
        </g>
    </g>
</svg>